<?xml version="1.0" encoding="utf-8"?>
<!-- Generator: Adobe Illustrator 25.2.3, SVG Export Plug-In . SVG Version: 6.00 Build 0)  -->
<svg version="1.1" id="Слой_1" xmlns="http://www.w3.org/2000/svg" xmlns:xlink="http://www.w3.org/1999/xlink" x="0px" y="0px"
	 viewBox="0 0 56.5 38.4" style="enable-background:new 0 0 56.5 38.4;" xml:space="preserve">
<style type="text/css">
	.st0{fill:url(#SVGID_1_);}
</style>
<linearGradient id="SVGID_1_" gradientUnits="userSpaceOnUse" x1="-30.6996" y1="25.205" x2="83.4286" y2="25.205" gradientTransform="matrix(1 0 0 -1 0 44.4)">
	<stop  offset="0" style="stop-color:#CB0C59"/>
	<stop  offset="0.3436" style="stop-color:#943C77"/>
	<stop  offset="1" style="stop-color:#22A0B6"/>
</linearGradient>
<path class="st0" d="M55.4,10.4H14c-1.5,0-2.2,0.6-2.2,1.9v13.9c0,1.3,0.7,1.9,2.2,1.9h28.5c1.4,0,2.2-0.6,2.2-1.8V15.7h11.8v13.4
	c0,6.2-3.8,9.3-11.6,9.3H11.6C3.8,38.4,0,35.3,0,29V9.4C0,3.1,3.8,0,11.6,0h43.8V10.4z M17.5,19.5h-2.1c-0.2,0-0.4,0.1-0.4,0.3V23
	h-1.6v-3.2c0-1,0.6-1.6,2-1.6h2.1L17.5,19.5L17.5,19.5z M24.5,23c0,1-0.6,1.6-2,1.6h-4.2v-1.3h4c0.3,0,0.5-0.2,0.5-0.5v-0.5h-3.4
	c-0.9,0-1.4-0.4-1.4-1.2v-2.8h1.6v2.4c0,0.2,0.1,0.3,0.4,0.3h2.9v-2.8h1.6L24.5,23L24.5,23z M33.7,23h-1.6v-3.2
	c0-0.2-0.1-0.3-0.4-0.3h-1.5V23h-1.6v-3.5h-1.8V23h-1.6v-4.8h6.5c1.3,0,2,0.5,2,1.6L33.7,23L33.7,23z M40.9,23c0,1-0.7,1.6-2,1.6
	h-4.2v-1.3h4c0.3,0,0.5-0.2,0.5-0.5v-0.5h-3.4c-0.9,0-1.4-0.4-1.4-1.2v-2.8h1.6v2.4c0,0.2,0.1,0.3,0.4,0.3h2.9v-2.8h1.6L40.9,23
	L40.9,23z M43.3,23h-1.6v-6.6h1.6V23z"/>
</svg>
